<svg id="Layer_1" data-name="Layer 1" xmlns="http://www.w3.org/2000/svg" viewBox="0 0 708.63 261.22">
	<defs>
		<style>
			.cls-1 {fill:#a1c928;}
			.cls-2 {fill:#fc634e;}
			.cls-3 {fill:#fff; font: bold 110px Arial;}
		</style>
	</defs>
	<title>logo</title>
	<path class="cls-1" d="M1746,372c30.16,0,60.32.07,90.48-.1,4.15,0,5.78.63,5.58,5.31-.42,9.84-.12,9.85-9.93,9.85q-88.23,0-176.47.11c-4.62,0-6.33-.76-6.08-5.82.47-9.34.13-9.35,9.44-9.35Z" transform="translate(-1427.04 -196.78)"/>
	<path class="cls-2" d="M1571.59,353.23c-12.92-34.21-30.25-66.24-48.08-98-6.41-11.45-13-22.8-19.51-34.19h-2c-7.38,12.83-14.9,25.58-22.12,38.5-16.81,30.08-33.15,60.4-45.23,92.78-3.84,10.3-7.48,20.72-7.61,31.88-.39,35.22,26.68,66.8,62.15,72.72,37.81,6.31,73.8-14.65,85.86-49.58C1581.48,388.66,1578.27,370.94,1571.59,353.23Zm-35.85,74.57c-31.17,21.85-73,8.39-86.22-27.29a43.24,43.24,0,0,1-.74-27.95c7.14-23.85,18.29-46,29.51-68.07,7.6-15,15.66-29.69,24.69-45.16,4.72,8.52,9,16.15,13.21,23.86,15,27.8,29.54,55.82,39.86,85.82C1563.9,391.86,1554.59,414.59,1535.74,427.8Z" transform="translate(-1427.04 -196.78)"/>
	<text class="cls-3" transform="translate(212.63 123.6)">FITNESS</text>
</svg>